<mxfile host="app.diagrams.net" agent="Mozilla/5.0 (Macintosh; Intel Mac OS X 10_15_7) AppleWebKit/605.1.15 (KHTML, like Gecko) Version/18.1 Safari/605.1.15" version="24.8.4">
  <diagram name="Page-1" id="i4yhofs2TUb9WiYOORUh">
    <mxGraphModel dx="1810" dy="1083" grid="1" gridSize="10" guides="1" tooltips="1" connect="1" arrows="1" fold="1" page="1" pageScale="1" pageWidth="827" pageHeight="1169" math="0" shadow="0">
      <root>
        <mxCell id="0" />
        <mxCell id="1" parent="0" />
        <mxCell id="NYAihWjIhHxkIWP6w_FF-1" value="Region" style="points=[[0,0],[0.25,0],[0.5,0],[0.75,0],[1,0],[1,0.25],[1,0.5],[1,0.75],[1,1],[0.75,1],[0.5,1],[0.25,1],[0,1],[0,0.75],[0,0.5],[0,0.25]];outlineConnect=0;gradientColor=none;html=1;whiteSpace=wrap;fontSize=12;fontStyle=0;container=1;pointerEvents=0;collapsible=0;recursiveResize=0;shape=mxgraph.aws4.group;grIcon=mxgraph.aws4.group_region;strokeColor=#00A4A6;fillColor=none;verticalAlign=top;align=left;spacingLeft=30;fontColor=#147EBA;dashed=1;" parent="1" vertex="1">
          <mxGeometry x="40" y="240" width="760" height="600" as="geometry" />
        </mxCell>
        <mxCell id="NYAihWjIhHxkIWP6w_FF-2" value="VPC" style="points=[[0,0],[0.25,0],[0.5,0],[0.75,0],[1,0],[1,0.25],[1,0.5],[1,0.75],[1,1],[0.75,1],[0.5,1],[0.25,1],[0,1],[0,0.75],[0,0.5],[0,0.25]];outlineConnect=0;gradientColor=none;html=1;whiteSpace=wrap;fontSize=12;fontStyle=0;container=1;pointerEvents=0;collapsible=0;recursiveResize=0;shape=mxgraph.aws4.group;grIcon=mxgraph.aws4.group_vpc2;strokeColor=#8C4FFF;fillColor=none;verticalAlign=top;align=left;spacingLeft=30;fontColor=#AAB7B8;dashed=0;" parent="NYAihWjIhHxkIWP6w_FF-1" vertex="1">
          <mxGeometry x="40" y="40" width="640" height="520" as="geometry" />
        </mxCell>
        <mxCell id="NYAihWjIhHxkIWP6w_FF-6" value="Private subnet" style="points=[[0,0],[0.25,0],[0.5,0],[0.75,0],[1,0],[1,0.25],[1,0.5],[1,0.75],[1,1],[0.75,1],[0.5,1],[0.25,1],[0,1],[0,0.75],[0,0.5],[0,0.25]];outlineConnect=0;gradientColor=none;html=1;whiteSpace=wrap;fontSize=12;fontStyle=0;container=1;pointerEvents=0;collapsible=0;recursiveResize=0;shape=mxgraph.aws4.group;grIcon=mxgraph.aws4.group_security_group;grStroke=0;strokeColor=#00A4A6;fillColor=#E6F6F7;verticalAlign=top;align=left;spacingLeft=30;fontColor=#147EBA;dashed=0;" parent="NYAihWjIhHxkIWP6w_FF-2" vertex="1">
          <mxGeometry x="27" y="360" width="563" height="130" as="geometry" />
        </mxCell>
        <mxCell id="NYAihWjIhHxkIWP6w_FF-21" value="" style="outlineConnect=0;dashed=0;verticalLabelPosition=bottom;verticalAlign=top;align=center;html=1;shape=mxgraph.aws3.emr;fillColor=#F58534;gradientColor=none;" parent="NYAihWjIhHxkIWP6w_FF-6" vertex="1">
          <mxGeometry x="160" y="35" width="50.5" height="60" as="geometry" />
        </mxCell>
        <mxCell id="NYAihWjIhHxkIWP6w_FF-5" value="Public subnet" style="points=[[0,0],[0.25,0],[0.5,0],[0.75,0],[1,0],[1,0.25],[1,0.5],[1,0.75],[1,1],[0.75,1],[0.5,1],[0.25,1],[0,1],[0,0.75],[0,0.5],[0,0.25]];outlineConnect=0;gradientColor=none;html=1;whiteSpace=wrap;fontSize=12;fontStyle=0;container=1;pointerEvents=0;collapsible=0;recursiveResize=0;shape=mxgraph.aws4.group;grIcon=mxgraph.aws4.group_security_group;grStroke=0;strokeColor=#7AA116;fillColor=#F2F6E8;verticalAlign=top;align=left;spacingLeft=30;fontColor=#248814;dashed=0;" parent="NYAihWjIhHxkIWP6w_FF-2" vertex="1">
          <mxGeometry x="27" y="120" width="563" height="110" as="geometry" />
        </mxCell>
        <mxCell id="vjs82XBFd0GfskSvRJct-35" value="Auto Scaling for EC2" style="points=[[0,0],[0.25,0],[0.5,0],[0.75,0],[1,0],[1,0.25],[1,0.5],[1,0.75],[1,1],[0.75,1],[0.5,1],[0.25,1],[0,1],[0,0.75],[0,0.5],[0,0.25]];outlineConnect=0;gradientColor=none;html=1;whiteSpace=wrap;fontSize=12;fontStyle=0;container=1;pointerEvents=0;collapsible=0;recursiveResize=0;shape=mxgraph.aws4.groupCenter;grIcon=mxgraph.aws4.group_auto_scaling_group;grStroke=1;strokeColor=#D86613;fillColor=none;verticalAlign=top;align=center;fontColor=#D86613;dashed=1;spacingTop=25;" vertex="1" parent="NYAihWjIhHxkIWP6w_FF-5">
          <mxGeometry x="10" y="25" width="543" height="80" as="geometry" />
        </mxCell>
        <mxCell id="vjs82XBFd0GfskSvRJct-7" value="" style="outlineConnect=0;dashed=0;verticalLabelPosition=bottom;verticalAlign=top;align=center;html=1;shape=mxgraph.aws3.elastic_load_balancing;fillColor=#F58534;gradientColor=none;" vertex="1" parent="NYAihWjIhHxkIWP6w_FF-2">
          <mxGeometry x="293.25" y="60" width="53.5" height="50" as="geometry" />
        </mxCell>
        <mxCell id="vjs82XBFd0GfskSvRJct-8" value="Availability zone" style="sketch=0;outlineConnect=0;gradientColor=none;html=1;whiteSpace=wrap;fontSize=12;fontStyle=0;shape=mxgraph.aws4.group;grIcon=mxgraph.aws4.group_availability_zone;strokeColor=#545B64;fillColor=none;verticalAlign=top;align=left;spacingLeft=30;fontColor=#545B64;dashed=1;" vertex="1" parent="NYAihWjIhHxkIWP6w_FF-2">
          <mxGeometry x="370" y="40" width="230" height="460" as="geometry" />
        </mxCell>
        <mxCell id="vjs82XBFd0GfskSvRJct-12" value="&lt;span style=&quot;caret-color: rgb(35, 47, 62); color: rgb(35, 47, 62); font-family: Helvetica; font-size: 10px; font-style: normal; font-variant-caps: normal; font-weight: 700; letter-spacing: normal; orphans: auto; text-align: center; text-indent: 0px; text-transform: none; white-space: normal; widows: auto; word-spacing: 0px; -webkit-text-stroke-width: 0px; background-color: rgb(251, 251, 251); text-decoration: none; display: inline !important; float: none;&quot;&gt;&amp;nbsp; &amp;nbsp; &amp;nbsp; ELB&lt;/span&gt;" style="text;whiteSpace=wrap;html=1;" vertex="1" parent="NYAihWjIhHxkIWP6w_FF-2">
          <mxGeometry x="320" y="40" width="50" height="30" as="geometry" />
        </mxCell>
        <mxCell id="NYAihWjIhHxkIWP6w_FF-22" value="&lt;span style=&quot;caret-color: rgb(35, 47, 62); color: rgb(35, 47, 62); font-family: Helvetica; font-size: 10px; font-style: normal; font-variant-caps: normal; font-weight: 700; letter-spacing: normal; orphans: auto; text-align: center; text-indent: 0px; text-transform: none; white-space: normal; widows: auto; word-spacing: 0px; -webkit-text-stroke-width: 0px; background-color: rgb(251, 251, 251); text-decoration: none; display: inline !important; float: none;&quot;&gt;Amazon EMR&lt;/span&gt;" style="text;whiteSpace=wrap;html=1;" parent="NYAihWjIhHxkIWP6w_FF-2" vertex="1">
          <mxGeometry x="188" y="450" width="50" height="30" as="geometry" />
        </mxCell>
        <mxCell id="vjs82XBFd0GfskSvRJct-18" value="Amazon RDS" style="sketch=0;outlineConnect=0;fontColor=#232F3E;gradientColor=none;strokeColor=#ffffff;fillColor=#232F3E;dashed=0;verticalLabelPosition=middle;verticalAlign=bottom;align=center;html=1;whiteSpace=wrap;fontSize=10;fontStyle=1;spacing=3;shape=mxgraph.aws4.productIcon;prIcon=mxgraph.aws4.rds;" vertex="1" parent="NYAihWjIhHxkIWP6w_FF-2">
          <mxGeometry x="440" y="380" width="50" height="80" as="geometry" />
        </mxCell>
        <mxCell id="vjs82XBFd0GfskSvRJct-20" value="" style="outlineConnect=0;dashed=0;verticalLabelPosition=bottom;verticalAlign=top;align=center;html=1;shape=mxgraph.aws3.emr;fillColor=#F58534;gradientColor=none;" vertex="1" parent="NYAihWjIhHxkIWP6w_FF-2">
          <mxGeometry x="509.5" y="374" width="50.5" height="60" as="geometry" />
        </mxCell>
        <mxCell id="vjs82XBFd0GfskSvRJct-21" value="&lt;span style=&quot;caret-color: rgb(35, 47, 62); color: rgb(35, 47, 62); font-family: Helvetica; font-size: 10px; font-style: normal; font-variant-caps: normal; font-weight: 700; letter-spacing: normal; orphans: auto; text-align: center; text-indent: 0px; text-transform: none; white-space: normal; widows: auto; word-spacing: 0px; -webkit-text-stroke-width: 0px; background-color: rgb(251, 251, 251); text-decoration: none; display: inline !important; float: none;&quot;&gt;Amazon EMR&lt;/span&gt;" style="text;whiteSpace=wrap;html=1;" vertex="1" parent="NYAihWjIhHxkIWP6w_FF-2">
          <mxGeometry x="510" y="430" width="50" height="30" as="geometry" />
        </mxCell>
        <mxCell id="vjs82XBFd0GfskSvRJct-23" value="Private subnet" style="points=[[0,0],[0.25,0],[0.5,0],[0.75,0],[1,0],[1,0.25],[1,0.5],[1,0.75],[1,1],[0.75,1],[0.5,1],[0.25,1],[0,1],[0,0.75],[0,0.5],[0,0.25]];outlineConnect=0;gradientColor=none;html=1;whiteSpace=wrap;fontSize=12;fontStyle=0;container=1;pointerEvents=0;collapsible=0;recursiveResize=0;shape=mxgraph.aws4.group;grIcon=mxgraph.aws4.group_security_group;grStroke=0;strokeColor=#00A4A6;fillColor=#E6F6F7;verticalAlign=top;align=left;spacingLeft=30;fontColor=#147EBA;dashed=0;" vertex="1" parent="NYAihWjIhHxkIWP6w_FF-2">
          <mxGeometry x="27" y="240" width="563" height="110" as="geometry" />
        </mxCell>
        <mxCell id="vjs82XBFd0GfskSvRJct-30" value="" style="outlineConnect=0;dashed=0;verticalLabelPosition=bottom;verticalAlign=top;align=center;html=1;shape=mxgraph.aws3.ec2;fillColor=#F58534;gradientColor=none;" vertex="1" parent="vjs82XBFd0GfskSvRJct-23">
          <mxGeometry x="407.75" y="25.5" width="40.5" height="38" as="geometry" />
        </mxCell>
        <mxCell id="vjs82XBFd0GfskSvRJct-31" value="&lt;span style=&quot;caret-color: rgb(35, 47, 62); color: rgb(35, 47, 62); font-family: Helvetica; font-size: 10px; font-style: normal; font-variant-caps: normal; font-weight: 700; letter-spacing: normal; orphans: auto; text-align: center; text-indent: 0px; text-transform: none; white-space: normal; widows: auto; word-spacing: 0px; -webkit-text-stroke-width: 0px; background-color: rgb(251, 251, 251); text-decoration: none; display: inline !important; float: none;&quot;&gt;Amazon EC2&lt;/span&gt;" style="text;whiteSpace=wrap;html=1;" vertex="1" parent="vjs82XBFd0GfskSvRJct-23">
          <mxGeometry x="403" y="54.5" width="50" height="30" as="geometry" />
        </mxCell>
        <mxCell id="vjs82XBFd0GfskSvRJct-28" value="" style="outlineConnect=0;dashed=0;verticalLabelPosition=bottom;verticalAlign=top;align=center;html=1;shape=mxgraph.aws3.ec2;fillColor=#F58534;gradientColor=none;" vertex="1" parent="NYAihWjIhHxkIWP6w_FF-2">
          <mxGeometry x="100" y="276" width="40.5" height="38" as="geometry" />
        </mxCell>
        <mxCell id="vjs82XBFd0GfskSvRJct-29" value="&lt;span style=&quot;caret-color: rgb(35, 47, 62); color: rgb(35, 47, 62); font-family: Helvetica; font-size: 10px; font-style: normal; font-variant-caps: normal; font-weight: 700; letter-spacing: normal; orphans: auto; text-align: center; text-indent: 0px; text-transform: none; white-space: normal; widows: auto; word-spacing: 0px; -webkit-text-stroke-width: 0px; background-color: rgb(251, 251, 251); text-decoration: none; display: inline !important; float: none;&quot;&gt;Amazon EC2&lt;/span&gt;" style="text;whiteSpace=wrap;html=1;" vertex="1" parent="NYAihWjIhHxkIWP6w_FF-2">
          <mxGeometry x="95.25" y="305" width="50" height="30" as="geometry" />
        </mxCell>
        <mxCell id="vjs82XBFd0GfskSvRJct-22" value="Auto Scaling for EC2" style="points=[[0,0],[0.25,0],[0.5,0],[0.75,0],[1,0],[1,0.25],[1,0.5],[1,0.75],[1,1],[0.75,1],[0.5,1],[0.25,1],[0,1],[0,0.75],[0,0.5],[0,0.25]];outlineConnect=0;gradientColor=none;html=1;whiteSpace=wrap;fontSize=12;fontStyle=0;container=1;pointerEvents=0;collapsible=0;recursiveResize=0;shape=mxgraph.aws4.groupCenter;grIcon=mxgraph.aws4.group_auto_scaling_group;grStroke=1;strokeColor=#D86613;fillColor=none;verticalAlign=top;align=center;fontColor=#D86613;dashed=1;spacingTop=25;" vertex="1" parent="NYAihWjIhHxkIWP6w_FF-2">
          <mxGeometry x="37" y="260" width="543" height="80" as="geometry" />
        </mxCell>
        <mxCell id="vjs82XBFd0GfskSvRJct-32" value="&lt;span style=&quot;caret-color: rgb(35, 47, 62); color: rgb(35, 47, 62); font-family: Helvetica; font-size: 10px; font-style: normal; font-variant-caps: normal; font-weight: 700; letter-spacing: normal; orphans: auto; text-align: center; text-indent: 0px; text-transform: none; white-space: normal; widows: auto; word-spacing: 0px; -webkit-text-stroke-width: 0px; background-color: rgb(251, 251, 251); text-decoration: none; display: inline !important; float: none;&quot;&gt;App Tier&lt;/span&gt;" style="text;whiteSpace=wrap;html=1;" vertex="1" parent="NYAihWjIhHxkIWP6w_FF-2">
          <mxGeometry x="420" y="240" width="100" height="20" as="geometry" />
        </mxCell>
        <mxCell id="vjs82XBFd0GfskSvRJct-33" value="&lt;span style=&quot;caret-color: rgb(35, 47, 62); color: rgb(35, 47, 62); font-family: Helvetica; font-size: 10px; font-style: normal; font-variant-caps: normal; font-weight: 700; letter-spacing: normal; orphans: auto; text-align: center; text-indent: 0px; text-transform: none; white-space: normal; widows: auto; word-spacing: 0px; -webkit-text-stroke-width: 0px; background-color: rgb(251, 251, 251); text-decoration: none; display: inline !important; float: none;&quot;&gt;Web Tier&lt;/span&gt;" style="text;whiteSpace=wrap;html=1;" vertex="1" parent="NYAihWjIhHxkIWP6w_FF-2">
          <mxGeometry x="420" y="120" width="100" height="20" as="geometry" />
        </mxCell>
        <mxCell id="vjs82XBFd0GfskSvRJct-36" value="" style="outlineConnect=0;dashed=0;verticalLabelPosition=bottom;verticalAlign=top;align=center;html=1;shape=mxgraph.aws3.ec2;fillColor=#F58534;gradientColor=none;" vertex="1" parent="NYAihWjIhHxkIWP6w_FF-2">
          <mxGeometry x="100" y="150" width="40.5" height="38" as="geometry" />
        </mxCell>
        <mxCell id="vjs82XBFd0GfskSvRJct-34" value="&lt;span style=&quot;caret-color: rgb(35, 47, 62); color: rgb(35, 47, 62); font-family: Helvetica; font-size: 10px; font-style: normal; font-variant-caps: normal; font-weight: 700; letter-spacing: normal; orphans: auto; text-align: center; text-indent: 0px; text-transform: none; white-space: normal; widows: auto; word-spacing: 0px; -webkit-text-stroke-width: 0px; background-color: rgb(251, 251, 251); text-decoration: none; display: inline !important; float: none;&quot;&gt;Amazon EC2&lt;/span&gt;" style="text;whiteSpace=wrap;html=1;" vertex="1" parent="NYAihWjIhHxkIWP6w_FF-2">
          <mxGeometry x="95.25" y="188" width="50" height="30" as="geometry" />
        </mxCell>
        <mxCell id="vjs82XBFd0GfskSvRJct-37" value="" style="outlineConnect=0;dashed=0;verticalLabelPosition=bottom;verticalAlign=top;align=center;html=1;shape=mxgraph.aws3.ec2;fillColor=#F58534;gradientColor=none;" vertex="1" parent="NYAihWjIhHxkIWP6w_FF-2">
          <mxGeometry x="424.75" y="150" width="40.5" height="38" as="geometry" />
        </mxCell>
        <mxCell id="vjs82XBFd0GfskSvRJct-38" value="&lt;span style=&quot;caret-color: rgb(35, 47, 62); color: rgb(35, 47, 62); font-family: Helvetica; font-size: 10px; font-style: normal; font-variant-caps: normal; font-weight: 700; letter-spacing: normal; orphans: auto; text-align: center; text-indent: 0px; text-transform: none; white-space: normal; widows: auto; word-spacing: 0px; -webkit-text-stroke-width: 0px; background-color: rgb(251, 251, 251); text-decoration: none; display: inline !important; float: none;&quot;&gt;Amazon EC2&lt;/span&gt;" style="text;whiteSpace=wrap;html=1;" vertex="1" parent="NYAihWjIhHxkIWP6w_FF-2">
          <mxGeometry x="420" y="188" width="50" height="30" as="geometry" />
        </mxCell>
        <mxCell id="NYAihWjIhHxkIWP6w_FF-14" value="Amazon RDS" style="sketch=0;outlineConnect=0;fontColor=#232F3E;gradientColor=none;strokeColor=#ffffff;fillColor=#232F3E;dashed=0;verticalLabelPosition=middle;verticalAlign=bottom;align=center;html=1;whiteSpace=wrap;fontSize=10;fontStyle=1;spacing=3;shape=mxgraph.aws4.productIcon;prIcon=mxgraph.aws4.rds;" parent="NYAihWjIhHxkIWP6w_FF-2" vertex="1">
          <mxGeometry x="100" y="390" width="50" height="80" as="geometry" />
        </mxCell>
        <mxCell id="NYAihWjIhHxkIWP6w_FF-4" value="Availability zone" style="sketch=0;outlineConnect=0;gradientColor=none;html=1;whiteSpace=wrap;fontSize=12;fontStyle=0;shape=mxgraph.aws4.group;grIcon=mxgraph.aws4.group_availability_zone;strokeColor=#545B64;fillColor=none;verticalAlign=top;align=left;spacingLeft=30;fontColor=#545B64;dashed=1;" parent="NYAihWjIhHxkIWP6w_FF-2" vertex="1">
          <mxGeometry x="20" y="40" width="230" height="460" as="geometry" />
        </mxCell>
        <mxCell id="vjs82XBFd0GfskSvRJct-39" value="&lt;span style=&quot;caret-color: rgb(35, 47, 62); color: rgb(35, 47, 62); font-family: Helvetica; font-size: 10px; font-style: normal; font-variant-caps: normal; font-weight: 700; letter-spacing: normal; orphans: auto; text-align: center; text-indent: 0px; text-transform: none; white-space: normal; widows: auto; word-spacing: 0px; -webkit-text-stroke-width: 0px; background-color: rgb(251, 251, 251); text-decoration: none; display: inline !important; float: none;&quot;&gt;DB Tier&lt;/span&gt;" style="text;whiteSpace=wrap;html=1;" vertex="1" parent="NYAihWjIhHxkIWP6w_FF-2">
          <mxGeometry x="424.75" y="354" width="100" height="20" as="geometry" />
        </mxCell>
        <mxCell id="vjs82XBFd0GfskSvRJct-11" style="edgeStyle=none;curved=1;rounded=0;orthogonalLoop=1;jettySize=auto;html=1;fontSize=12;startSize=8;endSize=8;" edge="1" parent="NYAihWjIhHxkIWP6w_FF-1" source="NYAihWjIhHxkIWP6w_FF-7" target="vjs82XBFd0GfskSvRJct-7">
          <mxGeometry relative="1" as="geometry" />
        </mxCell>
        <mxCell id="NYAihWjIhHxkIWP6w_FF-7" value="" style="sketch=0;outlineConnect=0;fontColor=#232F3E;gradientColor=none;fillColor=#8C4FFF;strokeColor=none;dashed=0;verticalLabelPosition=bottom;verticalAlign=top;align=center;html=1;fontSize=12;fontStyle=0;aspect=fixed;pointerEvents=1;shape=mxgraph.aws4.internet_gateway;" parent="NYAihWjIhHxkIWP6w_FF-1" vertex="1">
          <mxGeometry x="336" y="10" width="48" height="48" as="geometry" />
        </mxCell>
        <mxCell id="NYAihWjIhHxkIWP6w_FF-11" value="" style="sketch=0;pointerEvents=1;shadow=0;dashed=0;html=1;strokeColor=none;fillColor=#DF8C42;labelPosition=center;verticalLabelPosition=bottom;verticalAlign=top;align=center;outlineConnect=0;shape=mxgraph.veeam2.aws_s3;" parent="NYAihWjIhHxkIWP6w_FF-1" vertex="1">
          <mxGeometry x="700" y="70" width="45" height="50" as="geometry" />
        </mxCell>
        <mxCell id="NYAihWjIhHxkIWP6w_FF-17" value="&lt;span style=&quot;caret-color: rgb(35, 47, 62); color: rgb(35, 47, 62); font-family: Helvetica; font-size: 10px; font-style: normal; font-variant-caps: normal; font-weight: 700; letter-spacing: normal; orphans: auto; text-align: center; text-indent: 0px; text-transform: none; white-space: normal; widows: auto; word-spacing: 0px; -webkit-text-stroke-width: 0px; background-color: rgb(251, 251, 251); text-decoration: none; display: inline !important; float: none;&quot;&gt;Amazon S3&lt;/span&gt;" style="text;whiteSpace=wrap;html=1;" parent="NYAihWjIhHxkIWP6w_FF-1" vertex="1">
          <mxGeometry x="697.5" y="120" width="50" height="30" as="geometry" />
        </mxCell>
        <mxCell id="NYAihWjIhHxkIWP6w_FF-19" value="&lt;span style=&quot;caret-color: rgb(35, 47, 62); color: rgb(35, 47, 62); font-family: Helvetica; font-size: 10px; font-style: normal; font-variant-caps: normal; font-weight: 700; letter-spacing: normal; orphans: auto; text-align: center; text-indent: 0px; text-transform: none; white-space: normal; widows: auto; word-spacing: 0px; -webkit-text-stroke-width: 0px; background-color: rgb(251, 251, 251); text-decoration: none; display: inline !important; float: none;&quot;&gt;Internet Gateway&lt;/span&gt;" style="text;whiteSpace=wrap;html=1;" parent="NYAihWjIhHxkIWP6w_FF-1" vertex="1">
          <mxGeometry x="390" width="50" height="30" as="geometry" />
        </mxCell>
        <mxCell id="NYAihWjIhHxkIWP6w_FF-26" value="" style="sketch=0;points=[[0,0,0],[0.25,0,0],[0.5,0,0],[0.75,0,0],[1,0,0],[0,1,0],[0.25,1,0],[0.5,1,0],[0.75,1,0],[1,1,0],[0,0.25,0],[0,0.5,0],[0,0.75,0],[1,0.25,0],[1,0.5,0],[1,0.75,0]];outlineConnect=0;fontColor=#232F3E;fillColor=#8C4FFF;strokeColor=#ffffff;dashed=0;verticalLabelPosition=bottom;verticalAlign=top;align=center;html=1;fontSize=12;fontStyle=0;aspect=fixed;shape=mxgraph.aws4.resourceIcon;resIcon=mxgraph.aws4.quicksight;" parent="NYAihWjIhHxkIWP6w_FF-1" vertex="1">
          <mxGeometry x="695" y="200" width="50" height="50" as="geometry" />
        </mxCell>
        <mxCell id="NYAihWjIhHxkIWP6w_FF-27" value="&lt;span style=&quot;caret-color: rgb(35, 47, 62); color: rgb(35, 47, 62); font-family: Helvetica; font-size: 10px; font-style: normal; font-variant-caps: normal; font-weight: 700; letter-spacing: normal; orphans: auto; text-align: center; text-indent: 0px; text-transform: none; white-space: normal; widows: auto; word-spacing: 0px; -webkit-text-stroke-width: 0px; background-color: rgb(251, 251, 251); text-decoration: none; display: inline !important; float: none;&quot;&gt;Amazon QuickSight&lt;/span&gt;" style="text;whiteSpace=wrap;html=1;" parent="NYAihWjIhHxkIWP6w_FF-1" vertex="1">
          <mxGeometry x="697.5" y="260" width="50" height="30" as="geometry" />
        </mxCell>
        <mxCell id="NYAihWjIhHxkIWP6w_FF-24" value="" style="outlineConnect=0;dashed=0;verticalLabelPosition=bottom;verticalAlign=top;align=center;html=1;shape=mxgraph.aws3.glue;fillColor=#F58534;gradientColor=none;" parent="NYAihWjIhHxkIWP6w_FF-1" vertex="1">
          <mxGeometry x="693.75" y="315" width="52.5" height="60" as="geometry" />
        </mxCell>
        <mxCell id="NYAihWjIhHxkIWP6w_FF-25" value="&lt;span style=&quot;caret-color: rgb(35, 47, 62); color: rgb(35, 47, 62); font-family: Helvetica; font-size: 10px; font-style: normal; font-variant-caps: normal; font-weight: 700; letter-spacing: normal; orphans: auto; text-align: center; text-indent: 0px; text-transform: none; white-space: normal; widows: auto; word-spacing: 0px; -webkit-text-stroke-width: 0px; background-color: rgb(251, 251, 251); text-decoration: none; display: inline !important; float: none;&quot;&gt;AWS Glue&lt;/span&gt;" style="text;whiteSpace=wrap;html=1;" parent="NYAihWjIhHxkIWP6w_FF-1" vertex="1">
          <mxGeometry x="693.75" y="390" width="50" height="30" as="geometry" />
        </mxCell>
        <mxCell id="NYAihWjIhHxkIWP6w_FF-13" value="" style="sketch=0;points=[[0,0,0],[0.25,0,0],[0.5,0,0],[0.75,0,0],[1,0,0],[0,1,0],[0.25,1,0],[0.5,1,0],[0.75,1,0],[1,1,0],[0,0.25,0],[0,0.5,0],[0,0.75,0],[1,0.25,0],[1,0.5,0],[1,0.75,0]];outlineConnect=0;fontColor=#232F3E;fillColor=#ED7100;strokeColor=#ffffff;dashed=0;verticalLabelPosition=bottom;verticalAlign=top;align=center;html=1;fontSize=12;fontStyle=0;aspect=fixed;shape=mxgraph.aws4.resourceIcon;resIcon=mxgraph.aws4.fargate;" parent="NYAihWjIhHxkIWP6w_FF-1" vertex="1">
          <mxGeometry x="697.5" y="430" width="50" height="50" as="geometry" />
        </mxCell>
        <mxCell id="NYAihWjIhHxkIWP6w_FF-15" value="&lt;span style=&quot;caret-color: rgb(35, 47, 62); color: rgb(35, 47, 62); font-family: Helvetica; font-size: 10px; font-style: normal; font-variant-caps: normal; font-weight: 700; letter-spacing: normal; orphans: auto; text-align: center; text-indent: 0px; text-transform: none; white-space: normal; widows: auto; word-spacing: 0px; -webkit-text-stroke-width: 0px; background-color: rgb(251, 251, 251); text-decoration: none; display: inline !important; float: none;&quot;&gt;Amazon Fargate&lt;/span&gt;" style="text;whiteSpace=wrap;html=1;" parent="NYAihWjIhHxkIWP6w_FF-1" vertex="1">
          <mxGeometry x="693.75" y="490" width="50" height="30" as="geometry" />
        </mxCell>
        <mxCell id="NYAihWjIhHxkIWP6w_FF-8" value="" style="points=[[0.35,0,0],[0.98,0.51,0],[1,0.71,0],[0.67,1,0],[0,0.795,0],[0,0.65,0]];verticalLabelPosition=bottom;sketch=0;html=1;verticalAlign=top;aspect=fixed;align=center;pointerEvents=1;shape=mxgraph.cisco19.user;fillColor=#005073;strokeColor=none;" parent="1" vertex="1">
          <mxGeometry x="180" y="40" width="50" height="50" as="geometry" />
        </mxCell>
        <mxCell id="vjs82XBFd0GfskSvRJct-1" value="" style="sketch=0;points=[[0,0,0],[0.25,0,0],[0.5,0,0],[0.75,0,0],[1,0,0],[0,1,0],[0.25,1,0],[0.5,1,0],[0.75,1,0],[1,1,0],[0,0.25,0],[0,0.5,0],[0,0.75,0],[1,0.25,0],[1,0.5,0],[1,0.75,0]];outlineConnect=0;fontColor=#232F3E;fillColor=#8C4FFF;strokeColor=#ffffff;dashed=0;verticalLabelPosition=bottom;verticalAlign=top;align=center;html=1;fontSize=12;fontStyle=0;aspect=fixed;shape=mxgraph.aws4.resourceIcon;resIcon=mxgraph.aws4.route_53;" vertex="1" parent="1">
          <mxGeometry x="280" y="41" width="49" height="49" as="geometry" />
        </mxCell>
        <mxCell id="NYAihWjIhHxkIWP6w_FF-18" value="&lt;span style=&quot;caret-color: rgb(35, 47, 62); color: rgb(35, 47, 62); font-family: Helvetica; font-size: 10px; font-style: normal; font-variant-caps: normal; font-weight: 700; letter-spacing: normal; orphans: auto; text-align: center; text-indent: 0px; text-transform: none; white-space: normal; widows: auto; word-spacing: 0px; -webkit-text-stroke-width: 0px; background-color: rgb(251, 251, 251); text-decoration: none; display: inline !important; float: none;&quot;&gt;Amazon CloudFront&lt;/span&gt;" style="text;whiteSpace=wrap;html=1;" parent="1" vertex="1">
          <mxGeometry x="440" y="95.5" width="50" height="30" as="geometry" />
        </mxCell>
        <mxCell id="vjs82XBFd0GfskSvRJct-5" style="edgeStyle=none;curved=1;rounded=0;orthogonalLoop=1;jettySize=auto;html=1;exitX=0.5;exitY=1;exitDx=0;exitDy=0;exitPerimeter=0;fontSize=12;startSize=8;endSize=8;" edge="1" parent="1" source="NYAihWjIhHxkIWP6w_FF-12" target="NYAihWjIhHxkIWP6w_FF-7">
          <mxGeometry relative="1" as="geometry" />
        </mxCell>
        <mxCell id="NYAihWjIhHxkIWP6w_FF-12" value="" style="outlineConnect=0;dashed=0;verticalLabelPosition=bottom;verticalAlign=top;align=center;html=1;shape=mxgraph.aws3.cloudfront;fillColor=#F58536;gradientColor=none;" parent="1" vertex="1">
          <mxGeometry x="370" y="35" width="60" height="60" as="geometry" />
        </mxCell>
        <mxCell id="vjs82XBFd0GfskSvRJct-2" value="&lt;span style=&quot;caret-color: rgb(35, 47, 62); color: rgb(35, 47, 62); font-family: Helvetica; font-size: 10px; font-style: normal; font-variant-caps: normal; font-weight: 700; letter-spacing: normal; orphans: auto; text-align: center; text-indent: 0px; text-transform: none; white-space: normal; widows: auto; word-spacing: 0px; -webkit-text-stroke-width: 0px; background-color: rgb(251, 251, 251); text-decoration: none; display: inline !important; float: none;&quot;&gt;Route 53&lt;/span&gt;" style="text;whiteSpace=wrap;html=1;" vertex="1" parent="1">
          <mxGeometry x="279" y="90" width="50" height="30" as="geometry" />
        </mxCell>
        <mxCell id="vjs82XBFd0GfskSvRJct-3" style="edgeStyle=none;curved=1;rounded=0;orthogonalLoop=1;jettySize=auto;html=1;entryX=0;entryY=0.5;entryDx=0;entryDy=0;entryPerimeter=0;fontSize=12;startSize=8;endSize=8;" edge="1" parent="1" source="NYAihWjIhHxkIWP6w_FF-8" target="vjs82XBFd0GfskSvRJct-1">
          <mxGeometry relative="1" as="geometry" />
        </mxCell>
        <mxCell id="vjs82XBFd0GfskSvRJct-4" style="edgeStyle=none;curved=1;rounded=0;orthogonalLoop=1;jettySize=auto;html=1;entryX=0;entryY=0.5;entryDx=0;entryDy=0;entryPerimeter=0;fontSize=12;startSize=8;endSize=8;" edge="1" parent="1" source="vjs82XBFd0GfskSvRJct-1" target="NYAihWjIhHxkIWP6w_FF-12">
          <mxGeometry relative="1" as="geometry" />
        </mxCell>
      </root>
    </mxGraphModel>
  </diagram>
</mxfile>
